<svg width="35" height="33" viewBox="0 0 35 33" fill="none" xmlns="http://www.w3.org/2000/svg">
<path d="M10 22.5331C10 22.9635 10.2754 23.3456 10.6837 23.4817L16.4067 25.3902C17.2636 25.676 18.192 25.6633 19.0408 25.3542L32.1444 20.5823C32.9343 20.2946 33.4601 19.5437 33.4601 18.703V18.3773C33.4601 16.989 32.0802 16.023 30.7757 16.4981L19.0408 20.7715C18.192 21.0806 17.2636 21.0933 16.4067 20.8075L11.3163 19.11C10.6688 18.8941 10 19.3761 10 20.0587V22.5331Z" fill="#3D88ED"/>
<path d="M2 8.5237H14.7806L17.73 7.41895L20.6794 8.5237H33.46V11.9244C33.46 12.7584 32.9425 13.5048 32.1615 13.7973L19.1331 18.6774C18.2284 19.0163 17.2316 19.0163 16.3269 18.6774L10.9935 16.6797C9.68615 16.19 8.292 17.1565 8.292 18.5526V23.0401C8.292 23.8808 8.81771 24.6317 9.60763 24.9194L16.3613 27.3788C17.2454 27.7008 18.2146 27.7008 19.0987 27.3788L30.7756 23.1265C32.0802 22.6514 33.46 23.6174 33.46 25.0058V25.3315C33.46 26.1721 32.9343 26.9231 32.1444 27.2107L19.0987 31.9615C18.2146 32.2835 17.2454 32.2835 16.3613 31.9615L3.31563 27.2107C2.52571 26.9231 2 26.1721 2 25.3315V8.5237Z" fill="url(#paint0_linear_6972_27290)"/>
<path d="M3.25207 7.95487C1.58265 7.45899 1.58264 5.58852 3.25206 5.09263L16.3749 1.19463C17.2486 0.935123 18.2114 0.935122 19.085 1.19463L32.2079 5.09263C33.8774 5.58851 33.8774 7.45898 32.2079 7.95486L19.085 11.8529C18.2114 12.1124 17.2486 12.1124 16.3749 11.8529L3.25207 7.95487Z" fill="#8BB7F4"/>
<path fill-rule="evenodd" clip-rule="evenodd" d="M18.6196 2.1454C17.9001 1.94183 17.0999 1.94183 16.3804 2.1454L2.65356 6.02921C2.13991 6.17454 2.09205 6.43005 2.09205 6.5C2.09205 6.56995 2.13992 6.82546 2.65357 6.97079L16.3804 10.8546C17.0999 11.0582 17.9001 11.0582 18.6196 10.8546L32.3464 6.97079C32.8601 6.82546 32.9079 6.56995 32.9079 6.5C32.9079 6.43005 32.8601 6.17454 32.3464 6.02921L18.6196 2.1454ZM15.7847 0.23517C16.893 -0.0783896 18.107 -0.0783902 19.2153 0.235169L32.9421 4.11898C34.1747 4.46773 35 5.39108 35 6.5C35 7.60891 34.1747 8.53227 32.9421 8.88102L19.2153 12.7648C18.107 13.0784 16.893 13.0784 15.7847 12.7648L2.05787 8.88102C0.825266 8.53227 2.43158e-06 7.60892 0 6.5C-2.36922e-06 5.39109 0.825259 4.46773 2.05787 4.11898L15.7847 0.23517Z" fill="white"/>
<defs>
<linearGradient id="paint0_linear_6972_27290" x1="17.73" y1="7" x2="17.73" y2="32" gradientUnits="userSpaceOnUse">
<stop stop-color="#3D88ED"/>
<stop offset="1" stop-color="#096AEC"/>
</linearGradient>
</defs>
</svg>
